<svg width="14" height="13" viewBox="0 0 14 13" fill="none" xmlns="http://www.w3.org/2000/svg">
<path d="M7 12C6.839 12 6.671 11.9728 6.503 11.9118C6.335 11.8507 6.188 11.7624 6.055 11.6403L4.844 10.5679C3.605 9.46832 2.492 8.38235 1.491 7.30317C0.49 6.22398 0 5.0362 0 3.73303C0 2.66742 0.371 1.77828 1.106 1.06561C1.841 0.352941 2.751 0 3.85 0C4.466 0 5.054 0.128959 5.6 0.38009C6.146 0.631222 6.615 0.984163 7 1.42534C7.385 0.984163 7.854 0.638009 8.4 0.38009C8.946 0.122172 9.534 0 10.15 0C11.249 0 12.166 0.359729 12.901 1.0724C13.636 1.78507 14.007 2.67421 14.007 3.73982C14.007 5.04299 13.51 6.23756 12.516 7.32353C11.522 8.4095 10.395 9.50226 9.135 10.6018L7.945 11.6538C7.819 11.776 7.665 11.871 7.497 11.9253C7.329 11.9796 7.161 12.0136 7 12.0136V12ZM6.335 2.78281C5.999 2.32127 5.635 1.96833 5.25 1.72398C4.865 1.47964 4.396 1.35747 3.85 1.35747C3.15 1.35747 2.569 1.58145 2.1 2.0362C1.631 2.49095 1.4 3.0543 1.4 3.73303C1.4 4.32353 1.617 4.94796 2.051 5.60633C2.485 6.26471 2.996 6.9095 3.598 7.53394C4.2 8.15837 4.816 8.74208 5.453 9.28507C6.09 9.82805 6.608 10.276 7 10.629C7.399 10.276 7.91 9.82805 8.547 9.28507C9.184 8.74208 9.8 8.15837 10.402 7.53394C11.004 6.9095 11.522 6.27149 11.949 5.60633C12.376 4.94118 12.6 4.31674 12.6 3.73303C12.6 3.0543 12.369 2.49095 11.9 2.0362C11.431 1.58145 10.85 1.35747 10.15 1.35747C9.604 1.35747 9.135 1.47964 8.75 1.72398C8.365 1.96833 8.001 2.32127 7.665 2.78281C7.581 2.89819 7.483 2.97964 7.364 3.04072C7.245 3.10181 7.126 3.12896 6.993 3.12896C6.86 3.12896 6.741 3.10181 6.622 3.04072C6.503 2.97964 6.405 2.89819 6.321 2.78281H6.335Z" fill="black"/>
</svg>
