<svg width="20" height="23" viewBox="0 0 20 23" fill="none" xmlns="http://www.w3.org/2000/svg">
<g clip-path="url(#clip0_4_905)">
<path d="M16.0709 16.3373C15.2715 16.3373 14.5562 16.6666 14.0093 17.1826L6.50948 12.6267C6.56208 12.3742 6.60415 12.1217 6.60415 11.8582C6.60415 11.5948 6.56208 11.3423 6.50948 11.0898L13.9251 6.57782C14.4931 7.12672 15.24 7.46704 16.0709 7.46704C17.817 7.46704 19.2265 5.99598 19.2265 4.17363C19.2265 2.35127 17.817 0.880219 16.0709 0.880219C14.3248 0.880219 12.9153 2.35127 12.9153 4.17363C12.9153 4.4371 12.9574 4.6896 13.01 4.94209L5.59436 9.45406C5.02636 8.90516 4.27953 8.56484 3.44856 8.56484C1.70247 8.56484 0.292969 10.0359 0.292969 11.8582C0.292969 13.6806 1.70247 15.1517 3.44856 15.1517C4.27953 15.1517 5.02636 14.8113 5.59436 14.2624L13.0836 18.8293C13.031 19.0598 12.9995 19.3014 12.9995 19.5429C12.9995 21.3103 14.3774 22.7485 16.0709 22.7485C17.7644 22.7485 19.1424 21.3103 19.1424 19.5429C19.1424 17.7754 17.7644 16.3373 16.0709 16.3373ZM16.0709 3.07582C16.6495 3.07582 17.1228 3.56984 17.1228 4.17363C17.1228 4.77742 16.6495 5.27143 16.0709 5.27143C15.4924 5.27143 15.0191 4.77742 15.0191 4.17363C15.0191 3.56984 15.4924 3.07582 16.0709 3.07582ZM3.44856 12.9561C2.87003 12.9561 2.3967 12.462 2.3967 11.8582C2.3967 11.2545 2.87003 10.7604 3.44856 10.7604C4.02709 10.7604 4.50042 11.2545 4.50042 11.8582C4.50042 12.462 4.02709 12.9561 3.44856 12.9561ZM16.0709 20.6626C15.4924 20.6626 15.0191 20.1686 15.0191 19.5648C15.0191 18.961 15.4924 18.467 16.0709 18.467C16.6495 18.467 17.1228 18.961 17.1228 19.5648C17.1228 20.1686 16.6495 20.6626 16.0709 20.6626Z" fill="black"/>
</g>
<defs>
<clipPath id="clip0_4_905">
<rect width="18.9335" height="21.8682" fill="white" transform="translate(0.292969 0.880219)"/>
</clipPath>
</defs>
</svg>
