<svg width="718" height="518" viewBox="0 0 718 518" fill="none" xmlns="http://www.w3.org/2000/svg">
<path d="M276.863 89.3023C276.863 54.157 308.56 25.666 347.663 25.666C386.763 25.666 418.463 54.157 418.463 89.3023C418.463 105.843 412.487 120.91 402.083 132.227C382.16 153.901 352.383 175.732 352.383 203.849V213.329M352.383 213.329C376.767 213.046 401.247 219.819 421.817 233.686L669.567 400.696C713.113 430.049 690.017 492.333 635.583 492.333H82.4181C28.5737 492.333 5.1074 431.159 47.5104 401.333L284.033 234.956C304.113 220.833 328.2 213.609 352.383 213.329Z" stroke="black" stroke-width="50" stroke-linecap="round"/>
</svg>
